# xmcd
#
# Track frame offsets:
#	150
#	15693
#	28748
#	43658
#	61677
#	79923
#	92705
#	106365
#	121655
#	140086
#	157992
#
# Disc length: 2281 seconds
# Revision: 0
# Processed by: cddbd v1.5.2PL0 Copyright (c) Steve Scherf et al.
# Submitted via: dBpowerAMP V12.0
#
DISCID=8608e70b
DTITLE=Sarah Jane Nelson - Saving Grace
DYEAR=2009
DGENRE=Country
TTITLE0=Angel From Montgomery
TTITLE1=No Tomorrow
TTITLE2=Saving Grace
TTITLE3=Angels Step Aside
TTITLE4=Water Under The Bridge
TTITLE5=Everybody Needs Someone
TTITLE6=Louisiana
TTITLE7=What Mama Could've Been
TTITLE8=Crazy
TTITLE9=Words To Love By
TTITLE10=I'll Fly Away
EXTD=
EXTT0=
EXTT1=
EXTT2=
EXTT3=
EXTT4=
EXTT5=
EXTT6=
EXTT7=
EXTT8=
EXTT9=
EXTT10=
PLAYORDER=
